#!OML:ASF E:\Mandelcareful walks\Project 1\Capture day 1\Session 1\Subject1.ASF
:FULLY-SPECIFIED
:DEGREES
851
root 12.8681 14.9239 1.87147 -162.045 -75.4835 178.149
lowerback 38.5691 6.84329 0.601321
upperback 11.1187 7.04552 0.910878
thorax -6.4357 2.64281 -1.92294
lowerneck -38.8543 -5.15816 -7.06583
upperneck 17.8135 -3.18816 -0.639141
head 12.1123 -2.1015 0.174605
rclavicle -6.83819e-014 -3.18055e-014
rhumerus 36.1502 4.16345 -75.495
rradius 38.4945
rwrist -36.6651
rhand -20.1675 -33.3981
rfingers 7.12502
rthumb 6.17813 -63.288
lclavicle -6.83819e-014 -3.18055e-014
lhumerus -77.0425 -44.8726 120.257
lradius 70.7277
lwrist 32.472
lhand 2.96254 -12.4729
lfingers 7.12502
lthumb 28.4248 15.3884
rfemur -55.7873 -15.0547 6.81232
rtibia 50.3012
rfoot -6.37165 -3.4551
rtoes -13.9506
lfemur -56.5827 18.5257 -19.019
ltibia 69.7373
lfoot -25.5282 2.31682
ltoes -7.50487
852
root 12.8802 14.9165 1.88187 -161.961 -75.8405 177.942
lowerback 38.564 6.7839 0.600383
upperback 11.0754 6.98692 0.90999
thorax -6.48365 2.61893 -1.90412
lowerneck -38.5037 -5.37163 -7.38424
upperneck 17.6218 -3.47627 -0.147896
head 12.0057 -2.17217 0.36461
rclavicle -9.06458e-014 4.29375e-014
rhumerus 35.8787 4.0532 -75.7375
rradius 38.5393
rwrist -36.5926
rhand -20.1285 -33.0008
rfingers 7.12502
rthumb 6.21579 -62.8896
lclavicle -9.06458e-014 4.29375e-014
lhumerus -78.9705 -44.2688 122.383
lradius 71.2547
lwrist 33.2151
lhand 4.85458 -12.8737
lfingers 7.12502
lthumb 30.2313 14.6714
rfemur -55.6324 -15.1757 6.69945
rtibia 50.3616
rfoot -6.1353 -3.46238
rtoes -13.1661
lfemur -56.6227 18.1658 -19.0079
ltibia 69.8008
lfoot -25.4613 2.35082
ltoes -6.44344
853
root 12.8921 14.9103 1.88589 -162.347 -76.2354 178.337
lowerback 38.5248 6.71089 0.729928
upperback 10.9344 6.98151 0.92847
thorax -6.616 2.62479 -1.95469
lowerneck -37.7806 -5.49499 -7.55542
upperneck 17.3842 -3.69521 0.114193
head 11.8185 -2.23678 0.46243
rclavicle -1.43125e-014 1.27222e-014
rhumerus 35.4569 3.82684 -76.1082
rradius 38.6184
rwrist -36.4602
rhand -20.1286 -32.5953
rfingers 7.12502
rthumb 6.21569 -62.4842
lclavicle -1.43125e-014 1.27222e-014
lhumerus -80.8788 -43.7411 124.393
lradius 71.8065
lwrist 33.8677
lhand 6.77365 -13.1382
lfingers 7.12502
lthumb 32.0602 14.0556
rfemur -55.6048 -15.2709 6.78218
rtibia 50.4688
rfoot -6.04949 -3.56188
rtoes -12.603
lfemur -56.7983 17.8369 -18.8286
ltibia 69.8873
lfoot -25.3968 2.2908
ltoes -5.39951
854
root 12.9019 14.8995 1.87977 -162.062 -76.5751 178.072
lowerback 38.4652 6.66633 0.533834
upperback 10.9411 6.86801 0.984948
thorax -6.61972 2.57044 -1.75112
lowerneck -38.0505 -5.61317 -7.7475
upperneck 17.6065 -3.77862 0.322064
head 11.9589 -2.25842 0.549536
rclavicle -3.97569e-014 1.35174e-014
rhumerus 35.4554 3.92403 -76.2511
rradius 38.6331
rwrist -36.4397
rhand -19.8256 -32.799
rfingers 7.12502
rthumb 6.50819 -62.679
lclavicle -3.97569e-014 1.35174e-014
lhumerus -81.8132 -43.062 125.653
lradius 72.3825
lwrist 34.522
lhand 8.31246 -12.5245
lfingers 7.12502
lthumb 33.5241 14.3637
rfemur -55.6004 -15.3571 6.66137
rtibia 50.6161
rfoot -6.14024 -3.78612
rtoes -12.3202
lfemur -57 17.5672 -18.8353
ltibia 69.9796
lfoot -25.3609 2.26244
ltoes -4.95657
855
root 12.9095 14.8886 1.8629 -161.769 -76.8837 177.785
lowerback 38.3577 6.73843 0.30066
upperback 10.8915 6.89673 1.02285
thorax -6.66775 2.58675 -1.60236
lowerneck -37.832 -5.73919 -7.70318
upperneck 17.6498 -4.03388 0.481729
head 11.9552 -2.34273 0.556576
rclavicle 3.18055e-015 -3.49861e-014
rhumerus 35.2951 3.80707 -76.2837
rradius 38.6176
rwrist -36.4749
rhand -19.5727 -33.4731
rfingers 7.12502
rthumb 6.75236 -63.3454
lclavicle 3.18055e-015 -3.49861e-014
lhumerus -82.8293 -42.4139 126.825
lradius 73.0481
lwrist 35.1373
lhand 9.80995 -9.53305
lfingers 7.12502
lthumb 34.9461 17.0356
rfemur -55.5752 -15.4012 6.56142
rtibia 50.7758
rfoot -6.31322 -4.09079
rtoes -12.3276
lfemur -57.1725 17.4056 -18.8293
ltibia 70.0466
lfoot -25.2579 2.18751
ltoes -4.64216
856
root 12.9076 14.8863 1.85004 -162.028 -77.1862 177.921
lowerback 38.3465 6.73425 0.33094
upperback 10.8745 6.91642 1.07198
thorax -6.68571 2.59738 -1.57432
lowerneck -37.6636 -5.91583 -7.8359
upperneck 17.9146 -4.26217 0.660619
head 12.0519 -2.42755 0.600601
rclavicle 5.08889e-014 -2.38542e-014
rhumerus 35.0836 3.75083 -76.329
rradius 38.4427
rwrist -36.3693
rhand -19.9259 -33.0482
rfingers 7.12502
rthumb 6.41136 -62.9311
lclavicle 5.08889e-014 -2.38542e-014
lhumerus -83.6863 -41.8 127.885
lradius 73.7838
lwrist 35.9723
lhand 10.2695 -8.01459
lfingers 7.12502
lthumb 35.3819 18.4514
rfemur -55.337 -15.5035 6.59509
rtibia 50.8977
rfoot -6.46803 -4.24306
rtoes -12.4832
lfemur -57.1003 17.2961 -18.6838
ltibia 70.091
lfoot -25.2049 2.0792
ltoes -4.49859
857
root 12.8965 14.8873 1.84333 -160.233 -77.0414 175.88
lowerback 38.4348 6.93203 -0.142765
upperback 10.9476 6.95937 0.975633
thorax -6.6685 2.61104 -1.45298
lowerneck -37.7161 -6.08261 -7.99748
upperneck 18.3041 -4.44116 0.843606
head 12.2323 -2.49291 0.656021
rclavicle 1.74931e-014 7.95139e-015
rhumerus 34.9215 3.50322 -76.5631
rradius 38.4546
rwrist -36.0432
rhand -20.0708 -33.182
rfingers 7.12502
rthumb 6.27151 -63.0692
lclavicle 1.74931e-014 7.95139e-015
lhumerus -84.196 -41.3816 128.691
lradius 74.3997
lwrist 36.9171
lhand 10.3385 -10.2327
lfingers 7.12502
lthumb 35.4473 16.2177
rfemur -55.1486 -15.5645 6.07415
rtibia 50.9892
rfoot -6.46581 -4.1243
rtoes -12.645
lfemur -56.744 17.3567 -19.1356
ltibia 70.0599
lfoot -25.3271 2.01215
ltoes -4.64202
858
root 12.9088 14.8796 1.85258 -158.305 -77.6486 173.84
lowerback 38.6611 6.61081 0.148265
upperback 10.9191 6.66568 0.873634
thorax -6.73686 2.4805 -1.60947
lowerneck -37.6576 -6.20414 -8.02646
upperneck 18.6226 -4.61913 0.943619
head 12.363 -2.5596 0.661352
rclavicle -1.59028e-014 -3.89618e-014
rhumerus 34.6937 3.34646 -76.5932
rradius 38.5726
rwrist -36.0086
rhand -20.2803 -32.8051
rfingers 7.12502
rthumb 6.06925 -62.6982
lclavicle -1.59028e-014 -3.89618e-014
lhumerus -84.5383 -40.9353 129.29
lradius 74.7513
lwrist 37.5034
lhand 10.6201 -13.7169
lfingers 7.12502
lthumb 35.7142 12.6693
rfemur -54.9832 -16.5335 5.79396
rtibia 51.0709
rfoot -6.36536 -3.84422
rtoes -13.1313
lfemur -56.7941 16.5602 -19.4593
ltibia 70.0855
lfoot -25.339 2.0763
ltoes -4.583
859
root 12.9171 14.8743 1.83457 -158.359 -78.0582 173.856
lowerback 38.6601 6.51216 0.254295
upperback 10.9103 6.59276 0.886769
thorax -6.73904 2.44981 -1.62243
lowerneck -37.4547 -6.28226 -7.93736
upperneck 18.8305 -4.8444 1.14956
head 12.4289 -2.61984 0.684356
rclavicle -5.88403e-014 4.69132e-014
rhumerus 34.4529 3.43668 -76.5475
rradius 38.758
rwrist -36.3416
rhand -20.7166 -32.4607
rfingers 7.12502
rthumb 5.64795 -62.3654
lclavicle -5.88403e-014 4.69132e-014
lhumerus -85.0132 -40.3733 130.008
lradius 75.0786
lwrist 36.7691
lhand 8.46614 -15.5637
lfingers 7.12502
lthumb 33.6701 11.2927
rfemur -54.9181 -16.7301 5.91102
rtibia 51.1945
rfoot -6.42781 -4.08203
rtoes -13.7653
lfemur -56.8764 16.2857 -19.2665
ltibia 70.132
lfoot -25.2539 1.93973
ltoes -4.24762
860
root 12.9212 14.8665 1.81202 -158.522 -78.37 174.057
lowerback 38.5177 6.43926 0.154276
upperback 10.9635 6.46298 0.832603
thorax -6.64006 2.39292 -1.5698
lowerneck -37.5285 -6.20948 -7.5559
upperneck 19.059 -4.996 1.3837
head 12.5358 -2.61807 0.685195
rclavicle 6.83819e-014 -4.29375e-014
rhumerus 34.4081 3.61849 -76.8144
rradius 39.0356
rwrist -36.4891
rhand -20.9755 -32.7801
rfingers 7.12502
rthumb 5.39801 -62.6914
lclavicle 6.83819e-014 -4.29375e-014
lhumerus -85.2458 -39.827 130.347
lradius 75.4277
lwrist 35.88
lhand 5.70725 -15.8356
lfingers 7.12502
lthumb 31.0443 11.5574
rfemur -54.9677 -16.8476 6.07484
rtibia 51.3908
rfoot -6.588 -4.38775
rtoes -14.34
lfemur -57.0462 16.189 -19.1014
ltibia 70.2337
lfoot -25.1854 1.79496
ltoes -4.23698
861
root 12.9294 14.8511 1.78912 -158.768 -78.7937 174.382
lowerback 38.442 6.40813 0.412225
upperback 11.0127 6.53672 0.97201
thorax -6.55137 2.43036 -1.57604
lowerneck -37.6445 -6.60799 -8.00056
upperneck 19.4344 -5.40779 1.77529
head 12.7521 -2.77311 0.815939
rclavicle -5.725e-014 1.43125e-014
rhumerus 34.334 3.45898 -76.4695
rradius 39.2454
rwrist -36.5817
rhand -21.1839 -33.3275
rfingers 7.12502
rthumb 5.19678 -63.2438
lclavicle -5.725e-014 1.43125e-014
lhumerus -85.2861 -39.6695 130.691
lradius 75.6832
lwrist 36.7492
lhand 5.62564 -16.0276
lfingers 7.12502
lthumb 30.9665 11.3802
rfemur -55.09 -17.0904 6.31244
rtibia 51.6484
rfoot -6.64338 -4.53328
rtoes -14.2636
lfemur -57.3682 16.0289 -18.8982
ltibia 70.377
lfoot -25.0727 1.6671
ltoes -4.51616
